<svg xmlns="http://www.w3.org/2000/svg" width="50px" height="50px" viewBox="0 0 32 32"><circle cx="24" cy="10" r="7.5" fill="#90cff1" transform="rotate(-45.001 24.002 9.989)"/><path fill="#70b7e6" d="M20.7 15.3c-2.9-2.9-2.9-7.7 0-10.6 1.2-1.2 2.7-1.9 4.3-2.1-2.2-.3-4.6.4-6.3 2.1-2.9 2.9-2.9 7.7 0 10.6 1.7 1.7 4.1 2.4 6.3 2.1-1.6-.2-3.1-.9-4.3-2.1z"/><path fill="#004463" d="M15.1 16.6h-2.8c-.3 0-.5-.2-.5-.5s.2-.5.5-.5h2.8c1.1 0 2-.9 2-2v-1.1c0-.3.2-.5.5-.5s.5.2.5.5v1.1c0 1.6-1.3 3-3 3z"/><path fill="#607d95" d="M6.4 13.5H4.9c-.6 0-1-.4-1-1V12c0-.6.4-1 1-1h1.5v2.5z"/><path fill="#4b6c85" d="M4 13.1h.6c.3 0 .5-.2.5-.5V11h.5v2.5h-.7c-.4 0-.7-.2-.9-.4z"/><path fill="#607d95" d="M15.6 13.5h1.5c.6 0 1-.4 1-1V12c0-.6-.4-1-1-1h-1.5v2.5z"/><path fill="#4b6c85" d="M18 13.1h-.6c-.3 0-.5-.2-.5-.5V11h-.5v2.5h.8c.3 0 .6-.2.8-.4z"/><path fill="#d5e5f2" d="m8.1 20.3-4.7 1.6c-1.7.6-2.9 2.2-2.9 4v3.7h21v-3.7c0-1.8-1.2-3.4-2.9-4l-4.7-1.6H8.1z"/><path fill="#b0c4da" d="M10.5 20.2H8.1l-4.7 1.6c-1.5.5-2.9 2.2-2.9 4v3.8h1.7v-3.7c0-1.2.9-2.3 2-2.6l1.9-.6c.8-.3 1.6-.1 2.2.3.2.1.6.3.7.4.5.3 1.2.3 1.7 0 .9-.5 2.1-1.4 2.1-2.5l-.3-.6h-2zm11 9.3v-3.7c0-.8-.2-1.5-.6-2.1-2.5.3-4.4 2.4-4.4 5v.8h5z"/><path fill="#b0c4da" d="M.5 29.5v-3.7c0-.8.2-1.5.6-2.1 2.5.3 4.4 2.4 4.4 5v.8h-5z"/><path fill="#99b5ce" d="M2.2 25.8c0-.6.2-1.2.6-1.6-.5-.3-1.1-.4-1.6-.5-.4.6-.6 1.4-.6 2.1v3.7h1.7l-.1-3.7z"/><path fill="#b0c4da" d="M10.5 22.7h1v6.7h-1z"/><path fill="#f0c9ae" d="M8.1 16.9v3.3c0 1.6 2.9 2.9 2.9 2.9s2.9-1.3 2.9-2.9v-3.3H8.1z"/><path fill="#e2b698" d="M8.1 18.6c.8.5 1.9.9 2.9.9 1.1 0 2.1-.3 2.9-.9V17H8.1v1.6z"/><path fill="#e2b698" d="M9.7 20.2v-2.1H8.1v2.1c0 1.6 2.9 2.9 2.9 2.9l.8-.4c-.8-.5-2.1-1.4-2.1-2.5z"/><path fill="#f0c9ae" d="M16.4 7.7v5.4c0 3-2.4 5.5-5.5 5.5-3 0-5.5-2.4-5.5-5.5V7.7"/><path fill="#e2b698" d="M7.2 13.4v-1c0-.7.6-1.3 1.3-1.2 2.1.4 4.3-.1 6-1.4.3-.2.7 0 .7.3V8.5c0-.3-.4-.5-.7-.3-1.7 1.3-3.9 1.8-6 1.4l-.8-.2c-.2 0-.3.1-.4.1l-.4.1v.2c0 .1-.1.2-.1.4 0 .5-.4.8-.8.8h-.4v2.1c0 1.9 1 3.6 2.5 4.6-.6-1.4-.9-2.8-.9-4.3z"/><path fill="#8a6845" d="M5.6 11H6c.5 0 .8-.4.8-.8 0-.5.4-.8.8-.8l.9.2c2.1.4 4.3-.1 6-1.4.3-.2.7 0 .7.3v1.7c0 .5.4.8.8.8h.4l.8-2.7c.3-1.2-.7-2.4-1.9-2.4 0-1.5-1.3-2.6-2.8-2.4l-5.8 1c-1.3.2-2.2 1.5-2 2.8l.9 3.7z"/><path fill="#745539" d="M6.4 7.3c-.2-1.3.7-2.6 2-2.8l5.2-.9c-.4-.1-.7-.2-1.1-.1l-5.8 1c-1.3.2-2.2 1.5-2 2.8l.8 3.7H6c.5 0 .8-.4.8-.8 0-.2.1-.3.1-.4l-.5-2.5zm10.5 1.2c0-.3-.4-.5-.7-.3-.3.2-.7.4-1 .6v1.4c0 .5.4.8.8.8h.4l.4-1.4V8.5z"/><circle cx="25.4" cy="8.6" r="2.5" fill="#eef2fa" transform="rotate(-45.001 25.414 8.584)"/><path fill="#d5e5f2" d="M25.2 10.4c-1-1-1-2.6 0-3.5.3-.3.6-.5 1-.6-.9-.3-1.9-.1-2.6.6-1 1-1 2.6 0 3.5.7.7 1.7.9 2.6.6-.3-.2-.7-.4-1-.6z"/><path fill="#004463" d="M25.4 11.6c-.8 0-1.6-.3-2.1-.9-.6-.6-.9-1.3-.9-2.1s.3-1.6.9-2.1c1.1-1.1 3.1-1.1 4.2 0 .6.6.9 1.3.9 2.1s-.3 1.6-.9 2.1c-.5.6-1.3.9-2.1.9zm0-5c-.5 0-1 .2-1.4.6s-.6.8-.6 1.4.2 1 .6 1.4c.8.8 2.1.8 2.8 0 .4-.4.6-.9.6-1.4s-.2-1-.6-1.4c-.3-.4-.9-.6-1.4-.6zm1.8 3.8z"/><path fill="#004463" d="M20.8 13.7c-.1 0-.3 0-.4-.1-.2-.2-.2-.5 0-.7l2.8-2.8c.2-.2.5-.2.7 0s.2.5 0 .7l-2.8 2.8s-.2.1-.3.1zm-3.8.5c-.3.8-1 1.3-1.9 1.3h-2.8c-.3 0-.5.2-.5.5s.2.5.5.5h2.8c1.4 0 2.6-1 2.9-2.3h-1z"/></svg>