<svg xmlns="http://www.w3.org/2000/svg" width="50" height="50"><g transform="translate(-8 -1008.495)"><circle cx="32.001" cy="1032.495" r="24" fill="#1d67b1"/><path fill="#fff" d="M29 1023.495v6h-1v-3.686a11.539 11.526 0 0 0-1.948.916 11.539 11.526 0 0 0-5.543 8.77h22.926a11.539 11.526 0 0 1 .066 1 11.539 11.526 0 0 0-5.84-9.897 11.539 11.526 0 0 0-1.66-.758v3.655h-1v-6h-2.535v3h-1v-3H29zm6 2.01a11.539 11.526 0 0 1 .786.251 11.539 11.526 0 0 0-.785-.252zm8.5 10.99H19c-.553 0-1 .446-1 1v1c0 .554.447 1 1 1h26c.555 0 1-.446 1-1v-1c0-.554-.445-1-1-1h-1.5z"/></g></svg>