<svg xmlns="http://www.w3.org/2000/svg" width="32" height="32"><g transform="translate(551.002 -1517.362)"><path fill="none" stroke="#34485c" stroke-linecap="round" stroke-linejoin="round" d="m-525.086 1532.4 1.488-1.489m-20.41 1.489-1.49-1.489"/><path style="isolation:auto;mix-blend-mode:normal" fill="#34485c" d="m-541.009 1539.362.009 2.004c.002.552-.466.996-1.017.996h-1.992a.993.993 0 0 1-.995-.996l.004-2.004" color="#000" overflow="visible"/><path style="isolation:auto;mix-blend-mode:normal" fill="#f8b84e" d="M-537 1524.362h5v2.494h-5z" color="#000" overflow="visible"/><path style="isolation:auto;mix-blend-mode:normal" fill="#34485c" d="M-541.008 1526.362h13.023c.985 0 1.317 1 1.315.992l1.67 5.008h-19.009l1.667-4.998s.342-1.002 1.334-1.002z" color="#000" overflow="visible"/><path style="isolation:auto;mix-blend-mode:normal" fill="#f8b84e" d="m-543.96 512-1.042 1.053c-.998.997-.998.948-.998 1.937v3.018s0 .992 1 .992h21c1 0 1-.992 1-.992v-3.018c0-.99 0-.94-.998-1.937L-525.04 512h-18.921z" color="#000" overflow="visible" transform="translate(0 1020.362)"/><path style="isolation:auto;mix-blend-mode:normal" fill="#fcd062" d="M-539 1538.825c0-.81.669-1.463 1.5-1.463h6c.831 0 1.5.653 1.5 1.463v.537h-9z" color="#000" overflow="visible"/><path fill="none" stroke="#fcd062" d="M-544.507 1537.862h2.987m13.94 0h2.987"/><rect style="isolation:auto;mix-blend-mode:normal" width="7.965" height=".996" x="-538.533" y="1535.373" fill="#fcd062" color="#000" overflow="visible" rx=".498" ry=".498"/><rect style="isolation:auto;mix-blend-mode:normal" width="2.987" height=".996" x="-544.507" y="1535.373" fill="#f05542" color="#000" overflow="visible" rx=".498" ry=".498"/><rect width="2.987" height=".996" x="-527.581" y="1535.373" fill="#f05542" color="#000" overflow="visible" rx=".498" ry=".498" style="isolation:auto;mix-blend-mode:normal"/><path style="isolation:auto;mix-blend-mode:normal" fill="#34485c" d="m-524.005 1539.362.01 2.004c.001.552-.466.996-1.018.996h-1.991a.993.993 0 0 1-.996-.996l.004-2.004" color="#000" overflow="visible"/><path style="isolation:auto;mix-blend-mode:normal" fill="#e9eded" d="M-541 1527.362h13l1.496 4h-16z" color="#000" overflow="visible"/></g></svg>